<?xml version="1.0" encoding="utf-8"?>
<!-- Generator: Adobe Illustrator 24.0.3, SVG Export Plug-In . SVG Version: 6.00 Build 0)  -->
<svg version="1.1" id="Слой_1" xmlns="http://www.w3.org/2000/svg" xmlns:xlink="http://www.w3.org/1999/xlink" x="0px" y="0px"
	 viewBox="0 0 400 400" style="enable-background:new 0 0 400 400;" xml:space="preserve">
<style type="text/css">
	.st0{fill:#1D1D1B;}
</style>
<path class="st0" d="M197.14,7.85c36.55,0,70.01,8.51,100.4,25.51c30.39,17.01,54.23,40.49,71.53,70.43
	c17.29,29.94,25.93,62.96,25.93,99.05c0,33.74-8.78,65.31-26.35,94.7c-17.57,29.39-41.45,52.65-71.63,69.8
	c-30.18,17.15-62.64,25.72-97.36,25.72c-35.29,0-67.99-8.61-98.09-25.83s-53.84-40.8-71.21-70.74
	c-17.36-29.94-26.05-62.47-26.05-97.6c0-33.88,8.68-65.58,26.05-95.11c17.36-29.53,40.96-52.9,70.79-70.11
	C130.97,16.46,162.97,7.85,197.14,7.85z M199.66,372.32c30.81,0,59.65-7.68,86.54-23.03c26.89-15.35,48.17-36.16,63.85-62.44
	c15.68-26.28,23.53-54.42,23.53-84.43c0-32.22-7.7-61.68-23.11-88.37c-15.4-26.69-36.65-47.61-63.74-62.75
	c-27.1-15.14-56.97-22.71-89.59-22.71c-30.39,0-58.84,7.67-85.38,23.02c-26.54,15.35-47.54,36.2-63.01,62.54
	c-15.47,26.34-23.22,54.59-23.22,84.74c0,31.25,7.74,60.26,23.22,87.02c15.47,26.76,36.65,47.85,63.53,63.27
	C139.16,364.61,168.29,372.32,199.66,372.32z M130.97,294.53h36.97V182.51h-33.19V159.9h102.29v134.63h31.09v22.61H130.97V294.53z
	 M167.1,98.71c0-9.4,3.36-17.43,10.08-24.06c6.72-6.64,14.77-9.96,24.15-9.96c9.38,0,17.48,3.35,24.27,10.06
	c6.79,6.71,10.18,14.69,10.18,23.96s-3.39,17.25-10.18,23.96c-6.79,6.71-14.89,10.06-24.27,10.06c-9.38,0-17.43-3.32-24.15-9.96
	C170.46,116.14,167.1,108.11,167.1,98.71z"/>
</svg>
